# xmcd
#
# Track frame offsets:
#	150
#	21398
#	36143
#	48468
#	59495
#	78969
#	96318
#	112637
#	132252
#	146127
#	159294
#	172466
#	183882
#	206815
#	226987
#	241129
#	267519
#	286904
#	312785
#
# Disc length: 4457 seconds
#
# Revision: 0
# Processed by: cddbd v1.5.1PL0 Copyright (c) Steve Scherf et al.
# Submitted via: dBpowerAMP V4.0
#
DISCID=0e116713
DTITLE=Various Artist - HipHopSite.com presents Pre-Emptive Hype vol.6
DYEAR=1900
DGENRE=Hip-Hop
TTITLE0=04 Rap Up - Skillz
TTITLE1=Dark Ends ft Rakaa - Likwit Junkies
TTITLE2=Fresh - Blueprint
TTITLE3=The Strongest Man - Big Pooh of Little Brother
TTITLE4=Deceptions (Pete Rock Remix) - One Be Lo
TTITLE5=Another Day ft Jean Grae - Splash
TTITLE6=Keep it Movin' ft El Da Sensai - All Natural
TTITLE7=High Fidelity - Tame-One
TTITLE8=Hide Ya Face (El-P Remix) ft Ghostface Killah and El-P - Prefuse 73
TTITLE9=Dance Monkey - Sage Francis
TTITLE10=Fumbling over Words that Rhyme - Edan
TTITLE11=Rockaway and Crenshaw - J-Zone
TTITLE12=Jazz Thing ft Guru - Dakah Hip-Hop Orchestra
TTITLE13=Rosebuds - Sa-Ra Creative Partners
TTITLE14=Caught On Tape - Time Machine
TTITLE15=This Is Dedicated (Mikee and Whizzla's Take A Look Remix) ft MF Doom - Wale Oyejide
TTITLE16=Reign (RJD2 Remix) - Unkle
TTITLE17=One Day Away - Likwit Junkies
TTITLE18=DATA
EXTD=
EXTT0=
EXTT1=
EXTT2=
EXTT3=
EXTT4=
EXTT5=
EXTT6=
EXTT7=
EXTT8=
EXTT9=
EXTT10=
EXTT11=
EXTT12=
EXTT13=
EXTT14=
EXTT15=
EXTT16=
EXTT17=
EXTT18=
PLAYORDER=
